<?xml version="1.0" encoding="utf-8"?>
<!-- Generator: Adobe Illustrator 24.3.0, SVG Export Plug-In . SVG Version: 6.00 Build 0)  -->
<svg version="1.1" id="Layer_1" xmlns="http://www.w3.org/2000/svg" xmlns:xlink="http://www.w3.org/1999/xlink" x="0px" y="0px"
	 viewBox="0 0 17 17" style="enable-background:new 0 0 17 17;" xml:space="preserve">
<style type="text/css">
	.st0{fill:#FFFFFF;}
</style>
<path class="st0" d="M8.3,2C4.6,2,1.6,5,1.6,8.7s3,6.7,6.7,6.7c0,0,0,0,0,0c3.7,0,6.7-3,6.7-6.7C15,5,12,2,8.3,2z M11,9.3H8.3
	C7.9,9.3,7.6,9,7.6,8.7V6c0-0.4,0.3-0.7,0.7-0.7C8.7,5.3,9,5.6,9,6v2h2c0.4,0,0.7,0.3,0.7,0.7C11.6,9,11.3,9.3,11,9.3z"/>
</svg>
